<svg width="24" height="24" viewBox="0 0 24 24" fill="none" xmlns="http://www.w3.org/2000/svg">
<path d="M15.75 23.25H4.5C3.50544 23.25 2.55161 22.8549 1.84835 22.1517C1.14509 21.4484 0.75 20.4946 0.75 19.5V18.25H13.25V20.75C13.25 21.413 13.5134 22.0489 13.9822 22.5178C14.4511 22.9866 15.087 23.25 15.75 23.25ZM15.75 23.25C16.413 23.25 17.0489 22.9866 17.5178 22.5178C17.9866 22.0489 18.25 21.413 18.25 20.75V3.25C18.25 2.75555 18.3966 2.2722 18.6713 1.86108C18.946 1.44995 19.3365 1.12952 19.7933 0.940302C20.2501 0.751083 20.7528 0.701575 21.2377 0.798038C21.7227 0.894501 22.1681 1.1326 22.5178 1.48223C22.8674 1.83187 23.1055 2.27732 23.202 2.76228C23.2984 3.24723 23.2489 3.74989 23.0597 4.20671C22.8705 4.66353 22.55 5.05397 22.1389 5.32868C21.7278 5.60338 21.2445 5.75 20.75 5.75H18.25M20.75 0.750001H7C6.00544 0.750001 5.05161 1.14509 4.34835 1.84835C3.64509 2.55161 3.25 3.50544 3.25 4.5V18.25M8.25 5.75H13.25M8.25 10.75H13.25" stroke="#949494" stroke-width="1.5" stroke-linecap="round" stroke-linejoin="round"/>
</svg>
