<svg width="20" height="20" viewBox="0 0 20 20" fill="none" xmlns="http://www.w3.org/2000/svg">
<path d="M16.6111 3H3.38889C2.34568 3 1.5 3.89543 1.5 5V15C1.5 16.1046 2.34568 17 3.38889 17H16.6111C17.6543 17 18.5 16.1046 18.5 15V5C18.5 3.89543 17.6543 3 16.6111 3Z" fill="#141313"/>
<path d="M1.5 5L10 11L18.5 5" fill="#141313"/>
<path d="M18.5 5C18.5 3.89543 17.6543 3 16.6111 3H3.38889C2.34568 3 1.5 3.89543 1.5 5M18.5 5V15C18.5 16.1046 17.6543 17 16.6111 17H3.38889C2.34568 17 1.5 16.1046 1.5 15V5M18.5 5L10 11L1.5 5" stroke="white" stroke-linecap="round" stroke-linejoin="round"/>
</svg>
